<?xml version="1.0" standalone="no"?>
<!DOCTYPE svg PUBLIC "-//W3C//DTD SVG 20010904//EN"
 "http://www.w3.org/TR/2001/REC-SVG-20010904/DTD/svg10.dtd">
<svg version="1.0" xmlns="http://www.w3.org/2000/svg"
 width="778.000000pt" height="232.000000pt" viewBox="0 0 778.000000 232.000000"
 preserveAspectRatio="xMidYMid meet">

<g transform="translate(0.000000,232.000000) scale(0.100000,-0.100000)"
fill="#000000" stroke="none">
<path d="M432 2284 c-146 -39 -289 -157 -352 -288 -59 -125 -61 -162 -58 -888
3 -599 5 -658 22 -708 56 -170 179 -302 334 -360 100 -38 182 -41 852 -38 703
4 664 1 795 64 76 36 199 158 237 234 58 119 58 113 58 853 0 737 0 739 -56
849 -68 135 -219 254 -364 287 -29 7 -293 10 -730 10 -560 0 -695 -3 -738 -15z
m1458 -197 c98 -38 182 -124 215 -218 13 -35 15 -150 15 -715 0 -656 -1 -675
-21 -729 -29 -77 -102 -154 -181 -191 l-63 -29 -655 -3 c-729 -3 -733 -3 -825
63 -57 40 -120 123 -137 178 -10 32 -13 201 -13 717 l0 675 29 62 c49 106 154
187 266 204 25 4 333 6 685 5 584 -1 644 -3 685 -19z"/>
<path d="M580 1150 l0 -100 590 0 590 0 0 100 0 100 -590 0 -590 0 0 -100z"/>
<path d="M3160 2286 c-181 -52 -314 -176 -381 -356 l-24 -65 -3 -682 c-3 -757
-3 -752 62 -880 65 -129 170 -220 311 -270 l80 -28 685 0 c755 0 739 -1 865
63 118 61 209 165 263 301 l27 66 0 710 0 710 -24 70 c-62 182 -199 310 -386
361 -70 19 -1407 19 -1475 0z m1395 -187 c119 -22 215 -93 264 -198 l26 -56 3
-676 c2 -668 2 -678 -19 -733 -41 -110 -124 -189 -234 -221 -49 -14 -134 -15
-718 -13 l-662 3 -67 33 c-77 38 -130 92 -167 171 l-26 56 0 690 0 690 26 55
c47 100 138 171 249 196 73 16 1239 19 1325 3z"/>
<path d="M3340 1175 l0 -585 585 0 585 0 0 585 0 585 -585 0 -585 0 0 -585z
m970 0 l0 -385 -385 0 -385 0 0 385 0 385 385 0 385 0 0 -385z"/>
<path d="M5870 2281 c-177 -57 -310 -190 -366 -366 l-24 -76 0 -680 c0 -589 2
-689 16 -743 54 -210 239 -374 456 -406 60 -8 264 -11 728 -8 590 3 650 5 700
22 202 66 343 221 385 421 22 103 22 1317 0 1420 -28 135 -117 268 -232 348
-23 16 -74 40 -114 55 l-74 27 -710 2 c-653 1 -714 0 -765 -16z m1482 -199
c76 -31 152 -100 191 -176 l32 -61 0 -691 0 -690 -34 -68 c-36 -69 -88 -123
-151 -156 -78 -39 -120 -41 -795 -38 l-650 3 -63 29 c-79 37 -152 114 -182
192 -20 55 -20 67 -18 743 l3 686 25 50 c49 100 150 176 259 195 25 4 334 7
686 7 l640 -2 57 -23z"/>
<path d="M6137 1592 l-67 -67 205 -205 c113 -113 205 -209 205 -215 0 -6 -90
-100 -200 -210 -110 -110 -200 -204 -200 -210 0 -6 29 -40 65 -75 l65 -65 207
208 c114 114 209 207 212 207 3 0 98 -92 211 -205 l205 -205 70 70 70 70 -208
208 -207 207 207 207 208 208 -70 70 -70 70 -207 -207 -208 -208 -208 208
c-114 114 -210 207 -212 207 -3 0 -36 -30 -73 -68z"/>
</g>
</svg>
