<?xml version="1.0" standalone="no"?>
<!DOCTYPE svg PUBLIC "-//W3C//DTD SVG 20010904//EN"
 "http://www.w3.org/TR/2001/REC-SVG-20010904/DTD/svg10.dtd">
<svg version="1.0" xmlns="http://www.w3.org/2000/svg"
 width="325.000000pt" height="86.000000pt" viewBox="0 0 325.000000 86.000000"
 preserveAspectRatio="xMidYMid meet">

<g transform="translate(0.000000,86.000000) scale(0.100000,-0.100000)"
fill="#000000" stroke="none">
<path d="M128 853 c72 -2 132 -7 132 -11 0 -4 -56 -164 -125 -356 -69 -192
-125 -355 -125 -363 0 -9 14 -13 44 -13 l43 0 25 68 25 67 110 3 111 3 22 -58
c11 -32 23 -64 25 -70 5 -14 95 -19 95 -5 0 4 -54 169 -120 367 -66 198 -120
361 -120 362 0 2 672 4 1493 6 l1492 2 -1630 0 c-896 1 -1570 -1 -1497 -2z
m173 -380 c17 -54 34 -104 37 -110 3 -10 -15 -13 -72 -13 -42 0 -76 3 -76 8 0
8 73 212 76 212 1 0 17 -44 35 -97z"/>
<path d="M570 465 l0 -355 45 0 45 0 0 355 0 355 -45 0 -45 0 0 -355z"/>
<path d="M2085 807 c-3 -6 -4 -165 -3 -352 l3 -340 43 -3 42 -3 0 112 0 111
37 -7 c86 -16 119 -53 136 -151 l11 -64 37 0 c27 0 38 5 42 19 7 30 -10 115
-32 159 -20 40 -77 92 -99 92 -7 0 -12 2 -12 5 0 3 32 46 70 95 39 49 70 92
70 95 0 3 -24 5 -52 3 l-53 -3 -75 -99 -75 -99 -3 222 -2 221 -41 0 c-22 0
-42 -5 -44 -13z"/>
<path d="M2990 630 c0 -43 -3 -50 -20 -50 -17 0 -20 -7 -20 -40 0 -33 3 -40
20 -40 19 0 20 -7 20 -95 0 -117 14 -187 47 -226 31 -37 51 -47 108 -58 l45
-8 0 46 c0 44 -2 47 -32 56 -58 18 -73 52 -76 176 l-4 109 51 0 51 0 0 40 0
40 -50 0 -50 0 0 50 0 50 -45 0 -45 0 0 -50z"/>
<path d="M1642 572 c-61 -22 -94 -50 -129 -109 -67 -114 -21 -278 94 -334 70
-35 163 -33 226 5 26 15 54 38 63 51 9 14 19 25 23 25 4 0 14 -21 22 -47 15
-48 15 -48 63 -51 37 -2 47 0 44 10 -3 7 -29 85 -57 172 -29 87 -64 177 -79
198 -54 82 -168 116 -270 80z m144 -91 c45 -21 84 -83 84 -136 0 -45 -38 -113
-74 -132 -41 -22 -112 -21 -154 1 -73 38 -90 152 -35 224 46 60 108 75 179 43z"/>
<path d="M750 428 c0 -159 9 -214 42 -261 31 -44 74 -61 153 -61 87 0 141 27
176 88 23 39 24 50 24 211 l0 170 -42 3 -43 3 0 -146 c0 -173 -10 -208 -66
-231 -52 -22 -102 -8 -131 35 -21 32 -23 44 -23 187 l0 154 -45 0 -45 0 0
-152z"/>
<path d="M1355 561 c-49 -22 -91 -69 -105 -119 -7 -21 -10 -98 -8 -182 l3
-145 43 -3 42 -3 0 151 c0 125 3 157 17 181 17 28 57 49 94 49 16 0 19 8 19
45 0 44 -1 45 -32 45 -18 0 -51 -9 -73 -19z"/>
<path d="M2490 428 c0 -159 9 -214 42 -261 31 -43 74 -60 153 -61 59 0 78 4
116 26 75 44 84 72 84 273 l0 170 -42 3 -43 3 0 -146 c0 -173 -10 -208 -66
-231 -52 -22 -102 -8 -131 35 -21 32 -23 44 -23 187 l0 154 -45 0 -45 0 0
-152z"/>
</g>
</svg>
